HIERARCHY
ROOT Hips
{
  OFFSET 51.9427 55.9748 -6.65994
  CHANNELS 6 Xposition Yposition Zposition Zrotation Xrotation Yrotation
  JOINT spine
  {
    OFFSET 0 6.84637 0.3937
    CHANNELS 3 Zrotation Xrotation Yrotation
    JOINT spine1
    {
      OFFSET 0 9.49621 0
      CHANNELS 3 Zrotation Xrotation Yrotation
      JOINT spine2
      {
        OFFSET 0 9.09909 0
        CHANNELS 3 Zrotation Xrotation Yrotation
        JOINT Neck
        {
          OFFSET 0 23.3612 1.11378
          CHANNELS 3 Zrotation Xrotation Yrotation
          JOINT Head
          {
            OFFSET 0 7.05802 0
            CHANNELS 3 Zrotation Xrotation Yrotation
            End Site
            {
              OFFSET 0 17.0844 -5.63419
            }
          }
        }
        JOINT RightShoulder
        {
          OFFSET -3.83136 9.82631 -0.533491
          CHANNELS 3 Zrotation Xrotation Yrotation
          JOINT RightArm
          {
            OFFSET 0 12.8881 0
            CHANNELS 3 Zrotation Xrotation Yrotation
            JOINT RightArmRoll
            {
              OFFSET 0 6.50617 0
              CHANNELS 3 Zrotation Xrotation Yrotation
              JOINT RightForeArm
              {
                OFFSET 0 18.9501 0
                CHANNELS 3 Zrotation Xrotation Yrotation
                JOINT RightForeArmRoll
                {
                  OFFSET 0 7.30092 0
                  CHANNELS 3 Zrotation Xrotation Yrotation
                  JOINT RightHand
                  {
                    OFFSET 0 14.6514 0
                    CHANNELS 3 Zrotation Xrotation Yrotation
                    End Site
                    {
                      OFFSET 0 0 0
                    }
                  }
                }
              }
            }
          }
        }
        JOINT LeftShoulder
        {
          OFFSET 3.83136 9.82631 -0.533491
          CHANNELS 3 Zrotation Xrotation Yrotation
          JOINT LeftArm
          {
            OFFSET 0 12.8881 0
            CHANNELS 3 Zrotation Xrotation Yrotation
            JOINT LeftArmRoll
            {
              OFFSET 0 6.50617 0
              CHANNELS 3 Zrotation Xrotation Yrotation
              JOINT LeftForeArm
              {
                OFFSET 0 18.9501 0
                CHANNELS 3 Zrotation Xrotation Yrotation
                JOINT LeftForeArmRoll
                {
                  OFFSET 0 7.30092 0
                  CHANNELS 3 Zrotation Xrotation Yrotation
                  JOINT LeftHand
                  {
                    OFFSET 0 14.6514 0
                    CHANNELS 3 Zrotation Xrotation Yrotation
                    End Site
                    {
                      OFFSET 0 0 0
                    }
                  }
                }
              }
            }
          }
        }
      }
    }
  }
  JOINT RightUpLeg
  {
    OFFSET -6.06837 -1.11278 -0.933477
    CHANNELS 3 Zrotation Xrotation Yrotation
    JOINT RightUpLegRoll
    {
      OFFSET 0 17.1796 0
      CHANNELS 3 Zrotation Xrotation Yrotation
      JOINT RightLeg
      {
        OFFSET 0 -21.2743 0
        CHANNELS 3 Zrotation Xrotation Yrotation
        JOINT RightLegRoll
        {
          OFFSET 0 21.3439 0
          CHANNELS 3 Zrotation Xrotation Yrotation
          JOINT RightFoot
          {
            OFFSET 0 17.7652 0
            CHANNELS 3 Zrotation Xrotation Yrotation
            JOINT RightToeBase
            {
              OFFSET 0 14.8508 0
              CHANNELS 3 Zrotation Xrotation Yrotation
              End Site
              {
                OFFSET 0.0062947 7.19214 -0.829004
              }
            }
          }
        }
      }
    }
  }
  JOINT LeftUpLeg
  {
    OFFSET 6.06837 -1.11278 -0.933477
    CHANNELS 3 Zrotation Xrotation Yrotation
    JOINT LeftUpLegRoll
    {
      OFFSET 0 17.1797 0
      CHANNELS 3 Zrotation Xrotation Yrotation
      JOINT LeftLeg
      {
        OFFSET 0 21.2742 0
        CHANNELS 3 Zrotation Xrotation Yrotation
        JOINT LeftLegRoll
        {
          OFFSET 0 21.5412 0
          CHANNELS 3 Zrotation Xrotation Yrotation
          JOINT LeftFoot
          {
            OFFSET 0 17.5679 0
            CHANNELS 3 Zrotation Xrotation Yrotation
            JOINT LeftToeBase
            {
              OFFSET 0 14.8508 0
              CHANNELS 3 Zrotation Xrotation Yrotation
              End Site
              {
                OFFSET -0.0282102 7.19213 -0.829005
              }
            }
          }
        }
      }
    }
  }
}
MOTION
Frames: 5
Frame Time: 0.00208333
50.1293 86.5203 19.2884 0.795545 4.60794 -2.74128 1.11036 -1.68835 0.890741 2.23681 0.641959 1.67769 2.21785 2.28603 1.64098 -10.4193 -1.46894 9.75638 3.70819 8.86604 8.06604 48.2484 -5.44331 -2.67986 152.675 49.8397 -52.3269 2.00669e-007 1.61648e-006 -2.3606e-006 26.3246 16.3002 -2.19655 -3.15089e-006 2.01604e-005 -3.00866 8.03007 -4.95147 0.697704 -75.6139 -8.41974 5.56508 -123.165 55.7112 4.42545 -1.30531e-005 2.8523e-006 1.04963e-005 -17.4945 0.126349 -0.494126 2.27214e-005 5.74108e-007 3.01186 -8.02916 -4.95141 -0.697671 175.175 21.8926 0.0670105 -180 7.01597e-015 179.171 176.068 21.8377 -179.843 -1.26489e-006 1.23472e-006 0.266171 -17.369 68.0048 19.5162 8.13649 25.2327 -3.48773 -176.231 20.0047 0.127457 4.54188e-006 -4.6773e-006 -0.703297 -1.71724 -22.4681 0.515998 4.1073e-006 -5.44446e-006 -0.29966 17.0128 70.4294 -21.5475 -8.12572 25.2333 3.48233 
50.1297 86.5204 19.2803 0.797583 4.62864 -2.73141 1.10942 -1.68792 0.890884 2.23519 0.642966 1.67756 2.21622 2.28704 1.64089 -10.4198 -1.45368 9.75611 3.69126 8.87311 8.06388 48.2599 -5.44195 -2.67959 152.537 49.7993 -52.1511 2.00669e-007 1.61648e-006 -2.3606e-006 26.3246 16.2372 -2.18069 -3.15089e-006 2.01604e-005 -3.00866 8.03007 -4.95147 0.697704 -75.6168 -8.4243 5.5671 -123.173 55.7629 4.33636 -1.30531e-005 2.8523e-006 1.04963e-005 -17.433 0.126392 -0.445745 2.27214e-005 5.74108e-007 3.01749 -8.02916 -4.95141 -0.697671 175.169 21.9145 0.0793175 -180 7.01597e-015 179.171 176.055 21.8329 -179.838 -1.26489e-006 1.23472e-006 0.266171 -17.3764 67.9982 19.512 8.13649 25.2327 -3.48773 -176.233 20.0296 0.133691 4.54188e-006 -4.6773e-006 -0.703316 -1.71626 -22.4614 0.516558 4.1073e-006 -5.44446e-006 -0.299672 16.9998 70.4196 -21.5358 -8.12572 25.2333 3.48233 
50.1122 86.5254 19.2839 0.799685 4.64941 -2.72164 1.10848 -1.68753 0.891018 2.23357 0.643878 1.67745 2.2146 2.28795 1.6408 -10.4201 -1.43838 9.75589 3.67375 8.88002 8.06184 48.2713 -5.44049 -2.67925 152.4 49.7573 -51.9763 2.00669e-007 1.61648e-006 -2.3606e-006 26.3245 16.1774 -2.16559 -3.15089e-006 2.01604e-005 -3.00866 8.03007 -4.95147 0.697704 -75.62 -8.42902 5.5692 -123.182 55.8162 4.24483 -1.30531e-005 2.8523e-006 1.04963e-005 -17.3689 0.126435 -0.396878 2.27214e-005 5.74108e-007 3.02317 -8.02916 -4.95141 -0.697671 175.163 21.9366 0.0919824 -180 7.01598e-015 179.171 176.041 21.8281 -179.834 -1.26489e-006 1.23472e-006 0.266171 -17.3843 67.9915 19.5078 8.13649 25.2327 -3.48773 -176.235 20.0547 0.14001 4.54188e-006 -4.6773e-006 -0.703345 -1.71527 -22.4547 0.517118 4.1073e-006 -5.44446e-006 -0.299689 16.9868 70.4098 -21.524 -8.12572 25.2333 3.48233 
50.1158 86.5219 19.2686 0.80183 4.67022 -2.71194 1.10754 -1.68718 0.891147 2.23194 0.644724 1.67734 2.21297 2.2888 1.64071 -10.4201 -1.42305 9.7557 3.65584 8.88682 8.05986 48.2828 -5.43896 -2.67886 152.263 49.714 -51.8023 2.00669e-007 1.61648e-006 -2.3606e-006 26.3241 16.1197 -2.15103 -3.15089e-006 2.01604e-005 -3.00866 8.03007 -4.95147 0.697704 -75.6234 -8.43386 5.57135 -123.191 55.8707 4.1515 -1.30531e-005 2.8523e-006 1.04963e-005 -17.3031 0.12648 -0.347671 2.27214e-005 5.74108e-007 3.02889 -8.02916 -4.95141 -0.697671 175.157 21.9588 0.104899 -180 7.01598e-015 179.171 176.026 21.8234 -179.829 -1.26489e-006 1.23472e-006 0.266171 -17.3925 67.9848 19.5036 8.13649 25.2327 -3.48773 -176.238 20.0798 0.14639 4.54188e-006 -4.6773e-006 -0.703381 -1.71428 -22.4481 0.517678 4.1073e-006 -5.44446e-006 -0.299711 16.9737 70.4001 -21.5122 -8.12572 25.2333 3.48233 
50.1206 86.5213 19.2592 0.803995 4.69105 -2.70228 1.1066 -1.68685 0.891273 2.2303 0.645531 1.67724 2.21134 2.2896 1.64064 -10.42 -1.40771 9.75554 3.63769 8.89357 8.05792 48.2943 -5.43738 -2.67843 152.127 49.6699 -51.629 2.00669e-007 1.61648e-006 -2.3606e-006 26.3237 16.0634 -2.13679 -3.15089e-006 2.01604e-005 -3.00866 8.03007 -4.95147 0.697704 -75.6269 -8.43876 5.57353 -123.2 55.9258 4.05702 -1.30531e-005 2.8523e-006 1.04963e-005 -17.2363 0.126526 -0.298269 2.27214e-005 5.74108e-007 3.03462 -8.02916 -4.95141 -0.697671 175.151 21.9811 0.117962 -180 7.01598e-015 179.172 176.012 21.8188 -179.824 -1.26489e-006 1.23472e-006 0.266171 -17.4009 67.9781 19.4994 8.13649 25.2327 -3.48773 -176.24 20.105 0.152805 4.54188e-006 -4.6773e-006 -0.703421 -1.71329 -22.4415 0.518238 4.1073e-006 -5.44446e-006 -0.299735 16.9606 70.3904 -21.5004 -8.12572 25.2333 3.48233 
